<svg width="832" height="319" viewBox="0 0 832 319" fill="none" xmlns="http://www.w3.org/2000/svg">
<path d="M170.52 218H138.293L115.441 180.012C110.819 172.329 106.88 167.284 103.625 164.875C100.37 162.466 96.8542 161.262 93.0781 161.262H82.9219V218H55.0898V74.25H103.918C137.121 74.25 153.723 87.2057 153.723 113.117C153.723 122.622 150.923 130.891 145.324 137.922C139.79 144.888 131.88 149.836 121.594 152.766V153.156C128.169 155.37 135.428 162.759 143.371 175.324L170.52 218ZM82.9219 95.9297V139.484H99.5234C107.076 139.484 113.098 137.303 117.59 132.941C122.147 128.514 124.426 123.013 124.426 116.438C124.426 102.766 116.288 95.9297 100.012 95.9297H82.9219ZM274.473 174.348H205.918C207.025 191.796 216.921 200.52 235.605 200.52C246.999 200.52 257.155 197.525 266.074 191.535V212.238C256.569 217.772 244.362 220.539 229.453 220.539C213.503 220.539 201.068 215.917 192.148 206.672C183.294 197.427 178.867 184.504 178.867 167.902C178.867 151.626 183.62 138.41 193.125 128.254C202.695 118.033 214.642 112.922 228.965 112.922C243.288 112.922 254.453 117.316 262.461 126.105C270.469 134.895 274.473 146.971 274.473 162.336V174.348ZM248.789 156.477C248.789 140.201 242.083 132.062 228.672 132.062C223.073 132.062 218.125 134.276 213.828 138.703C209.596 143.13 206.96 149.055 205.918 156.477H248.789ZM392.098 218H364.949V160.48C364.949 142.902 358.602 134.113 345.906 134.113C339.526 134.113 334.318 136.522 330.281 141.34C326.31 146.092 324.324 152.147 324.324 159.504V218H297.078V115.363H324.324V131.867H324.617C332.169 119.237 343.27 112.922 357.918 112.922C380.704 112.922 392.098 127.017 392.098 155.207V218Z" fill="white"/>
<path d="M720.031 115.363L680.969 218H650.793L613.684 115.363H642.98L663.195 181.965C665.083 188.28 666.255 193.944 666.711 198.957H667.199C667.72 194.074 668.892 188.573 670.715 182.453L691.516 115.363H720.031ZM739.121 121.906C743.743 119.237 749.733 117.089 757.09 115.461C764.447 113.768 771.055 112.922 776.914 112.922C804.648 112.922 818.516 126.984 818.516 155.109V218H792.539V202.863H792.051C785.15 214.647 774.896 220.539 761.289 220.539C751.393 220.539 743.548 217.772 737.754 212.238C731.96 206.639 729.062 199.152 729.062 189.777C729.062 170.181 740.716 158.82 764.023 155.695L792.637 151.789C792.637 138.703 786.257 132.16 773.496 132.16C761.322 132.16 749.863 135.969 739.121 143.586V121.906ZM772.227 171.125C760.508 172.622 754.648 177.863 754.648 186.848C754.648 190.884 756.048 194.172 758.848 196.711C761.647 199.25 765.423 200.52 770.176 200.52C776.686 200.52 782.057 198.241 786.289 193.684C790.521 189.061 792.637 183.267 792.637 176.301V168.488L772.227 171.125Z" fill="white"/>
<path d="M607.088 304H582.127V260.875H606.121V267.818H590.477V278.805H605.008V285.719H590.477V297.086H607.088V304ZM652.659 304H643.928L624.856 274.791C624.075 273.6 623.43 272.486 622.922 271.451H622.805C622.961 272.818 623.039 275.045 623.039 278.131V304H615.071V260.875H624.387L642.786 289.322C643.723 290.768 644.407 291.881 644.836 292.662H644.954C644.797 291.9 644.719 289.889 644.719 286.627V260.875H652.659V304ZM688.503 304H663.542V260.875H687.536V267.818H671.891V278.805H686.423V285.719H671.891V297.086H688.503V304ZM731.114 304H721.446L714.591 292.604C713.204 290.299 712.023 288.785 711.046 288.062C710.07 287.34 709.015 286.979 707.882 286.979H704.835V304H696.486V260.875H711.134C721.095 260.875 726.075 264.762 726.075 272.535C726.075 275.387 725.236 277.867 723.556 279.977C721.896 282.066 719.523 283.551 716.437 284.43V284.547C718.409 285.211 720.587 287.428 722.97 291.197L731.114 304ZM704.835 267.379V280.445H709.816C712.081 280.445 713.888 279.791 715.236 278.482C716.603 277.154 717.286 275.504 717.286 273.531C717.286 269.43 714.845 267.379 709.962 267.379H704.835ZM770.826 301.07C766.587 303.531 761.47 304.762 755.474 304.762C748.795 304.762 743.482 302.828 739.537 298.961C735.591 295.074 733.619 289.791 733.619 283.111C733.619 276.393 735.767 270.895 740.064 266.617C744.361 262.32 750.045 260.172 757.115 260.172C761.724 260.172 765.728 260.836 769.127 262.164V270.279C765.806 268.268 761.724 267.262 756.88 267.262C752.603 267.262 749.117 268.678 746.421 271.51C743.746 274.322 742.408 278.043 742.408 282.672C742.408 287.398 743.619 291.08 746.041 293.717C748.462 296.334 751.783 297.643 756.002 297.643C758.58 297.643 760.728 297.223 762.447 296.383V286.861H753.599V280.064H770.826V301.07ZM788.623 260.875V304H780.273V260.875H788.623ZM824.496 304H799.536V260.875H823.53V267.818H807.885V278.805H822.416V285.719H807.885V297.086H824.496V304Z" fill="white"/>
<path d="M40.6221 82.8634C37.8718 80.4026 35.7808 77.293 34.5394 73.8176C33.298 70.3423 32.9456 66.6116 33.5143 62.9653C34.0831 59.319 35.5548 55.8728 37.7957 52.9406C40.0365 50.0084 42.9752 47.6833 46.3442 46.177C49.7132 44.6707 53.4055 44.031 57.0848 44.3162C60.7642 44.6014 64.3138 45.8024 67.4104 47.8099C70.5071 49.8174 73.0524 52.5675 74.8146 55.81C76.5768 59.0525 77.5 62.6843 77.5 66.3747H66.4375C66.4375 64.5294 65.976 62.7134 65.0948 61.092C64.2137 59.4707 62.9409 58.0955 61.3925 57.0918C59.8441 56.088 58.0691 55.4875 56.2293 55.345C54.3895 55.2025 52.5433 55.5225 50.8588 56.2758C49.1742 57.0292 47.7049 58.192 46.5846 59.6583C45.4643 61.1246 44.7285 62.8479 44.4444 64.6712C44.1603 66.4945 44.3368 68.3599 44.9578 70.0976C45.5789 71.8353 46.6247 73.39 48.0002 74.6201L40.6221 82.8634Z" fill="white"/>
<path d="M60.9062 11.0625H49.8438V33.1875H60.9062V11.0625Z" fill="white"/>
<path d="M22.1875 60.8438H0.0625V71.9062H22.1875V60.8438Z" fill="white"/>
<path d="M20.1739 23.3515L12.3516 31.1738L27.9963 46.8186L35.8187 38.9962L20.1739 23.3515Z" fill="white"/>
<path d="M74.931 38.997L82.7534 46.8193L98.3982 31.1746L90.5758 23.3522L74.931 38.997Z" fill="white"/>
<path d="M506.055 66H511.374L514.635 66.1716L518.41 66.5148L522.185 67.0296L525.96 67.716L529.307 68.4882L532.824 69.432L535.227 70.2042L537.286 70.8906L540.461 72.0918L542.863 73.1214L545.694 74.4084L548.44 75.7812L550.413 76.8966L551.958 77.7546L554.189 79.1274L557.02 81.0151L558.479 82.0447L560.109 83.2459L561.653 84.4471L563.541 85.9915L564.828 87.1069L566.544 88.6513L567.831 89.8525L570.92 92.9413L571.52 93.6277L572.636 94.8289L573.408 95.7727L574.18 96.6307L575.124 97.8319L576.239 99.2047L577.526 100.921L578.642 102.465L580.529 105.297L581.559 106.927L582.76 108.986L583.961 111.131L585.248 113.619L586.364 115.936L587.737 119.11L589.109 122.714L590.139 125.803L590.911 128.377L592.112 133.182L592.885 137.214L593.399 140.732L593.743 143.992L594 147.939V155.147L593.743 159.093L593.314 163.04L592.799 166.301L592.198 169.389L591.598 172.049L590.654 175.567L589.71 178.57L588.852 181.058L587.565 184.319L586.707 186.292L585.763 188.351L584.819 190.325L582.76 194.1L581.302 196.502L580.358 198.047L578.728 200.449L577.612 201.993L576.583 203.366L575.725 204.482L574.609 205.854L573.58 207.056L572.807 207.999L571.52 209.372L570.92 210.059L570.148 210.831L569.547 211.517L568.003 213.062L567.316 213.662L566.458 214.52L565.772 215.121L564.914 215.893L563.97 216.665L563.112 217.438L562.254 218.124L561.053 219.068L559.937 219.926L556.848 222.157L554.875 223.444L553.245 224.473L551.357 225.589L549.384 226.704L547.067 227.905L544.665 229.106L541.748 230.393L539.174 231.423L536.085 232.538L532.567 233.654L529.049 234.598L525.531 235.37L521.756 236.056L517.809 236.571L513.605 236.914L511.975 237H504.768L500.821 236.743L496.96 236.314L493.614 235.799L489.753 235.027L485.634 233.997L483.06 233.225L479.971 232.195L477.397 231.251L474.909 230.222L472.593 229.192L470.104 227.991L467.616 226.704L465.643 225.589L463.498 224.302L461.353 222.929L459.98 221.985L458.521 220.955L456.891 219.754L454.489 217.867L452.086 215.807L451.142 214.949L450.456 214.349L449.855 213.748L449.169 213.148L446.338 210.316L445.737 209.63L445.136 209.029L444.536 208.343L442.477 205.94L441.533 204.739L440.503 203.452L439.302 201.822L438.187 200.277L436.642 197.961L435.355 195.902L433.897 193.413L432.781 191.354L431.494 188.866L430.379 186.464L429.006 183.203L427.633 179.514L426.604 176.339L425.746 173.25L424.973 170.076L424.373 167.073L423.772 163.383L423.343 159.694L423.086 156.262L423 154.289V148.711L423.172 145.451L423.429 142.448L423.772 139.702L424.287 136.442L425.059 132.581L426.089 128.463L427.033 125.374L428.234 121.856L429.521 118.596L430.636 116.022L432.009 113.19L432.953 111.303L434.068 109.329L434.755 108.128L435.784 106.412L436.728 104.953L437.586 103.666L438.701 102.036L439.903 100.406L441.018 98.9473L441.962 97.7461L442.906 96.6307L443.678 95.6869L444.536 94.7431L445.136 94.0567L446.166 92.9413L447.367 91.6543L449.512 89.5093L450.199 88.9087L451.571 87.6217L452.515 86.8495L453.459 85.9915L454.403 85.2193L455.776 84.1039L458.178 82.3021L459.637 81.2725L462.983 79.0416L465.385 77.583L467.53 76.3818L469.675 75.2664L471.306 74.4084L474.137 73.1214L477.226 71.8344L480.486 70.6332L483.918 69.5178L487.693 68.4882L491.125 67.716L493.871 67.2012L497.818 66.6006L501.164 66.2574L503.566 66.0858L506.055 66ZM508.371 76.4676L504.768 76.5534L500.478 76.8966L496.531 77.4114L492.498 78.1836L489.324 78.9558L485.806 79.9854L482.545 81.1009L480.143 82.0447L477.569 83.1601L474.738 84.5329L472.421 85.7341L470.362 86.9353L468.388 88.1365L466.844 89.1661L465.471 90.1099L463.927 91.2253L462.811 92.0833L461.61 93.0271L460.666 93.7993L458.264 95.8585L456.805 97.2313L453.373 100.663L452.601 101.607L452 102.208L451.228 103.152L450.284 104.267L449.598 105.125L448.74 106.24L447.968 107.27L446.938 108.729L445.222 111.303L444.107 113.104L442.82 115.335L441.79 117.309L441.018 118.767L439.903 121.17L438.616 124.258L437.5 127.347L436.814 129.492L436.042 132.066L435.269 135.241L434.497 139.188L434.154 141.504L433.811 144.679L433.639 146.738L433.553 148.454V154.632L433.811 158.407L434.154 161.582L434.669 164.842L435.527 168.96L436.299 171.878L437.329 175.224L438.358 178.141L439.559 181.058L440.332 182.774L441.361 184.919L442.305 186.807L443.42 188.78L444.536 190.668L445.565 192.298L447.024 194.443L447.882 195.644L449.255 197.446L450.199 198.647L451.142 199.763L451.915 200.706L452.944 201.822L453.545 202.508L454.231 203.195L454.832 203.881L456.548 205.597L457.234 206.198L457.921 206.884L458.607 207.485L459.465 208.257L460.409 209.029L461.524 209.973L464.785 212.461L466.672 213.748L468.646 215.035L471.048 216.494L473.536 217.867L475.853 219.068L478.684 220.355L482.031 221.728L485.463 222.929L488.037 223.701L490.954 224.473L494.557 225.245L498.247 225.846L502.108 226.275L504.51 226.447L506.484 226.532H510.431L513.777 226.361L516.694 226.103L520.04 225.674L523.73 224.988L526.389 224.387L529.307 223.615L532.824 222.5L535.656 221.47L538.745 220.183L540.461 219.411L541.833 218.725L543.12 218.038L544.493 217.352L546.552 216.151L548.268 215.121L551.615 212.89L553.159 211.775L554.274 210.917L555.476 209.973L556.591 209.029L557.535 208.257L558.564 207.313L559.251 206.712L560.538 205.511L563.112 202.937L563.712 202.251L564.313 201.65L565.085 200.706L566.029 199.677L566.973 198.476L568.088 197.103L569.29 195.473L570.491 193.757L571.349 192.47L572.55 190.582L573.751 188.523L574.609 186.978L575.81 184.662L576.926 182.345L578.127 179.514L579.071 177.026L580.186 173.765L581.13 170.419L581.902 167.159L582.589 163.555L583.018 160.38L583.361 156.691L583.447 155.232L583.532 152.573V150.685L583.447 147.853L583.189 144.25L582.76 140.732L582.245 137.643L581.645 134.726L580.958 131.98L580.1 129.063L579.071 125.974L577.87 122.886L576.926 120.741L575.553 117.823L574.695 116.193L573.408 113.877L572.207 111.903L571.435 110.702L570.577 109.415L569.375 107.699L568.174 106.069L567.23 104.868L566.458 103.924L565.428 102.723L564.656 101.779L563.283 100.32L562.34 99.2905L560.109 97.0597H559.937V96.8881L559.251 96.2875L558.135 95.2579L557.192 94.4857L555.905 93.3703L554.703 92.4265L552.902 91.0537L551.357 89.9383L550.07 89.0803L548.354 87.9649L545.952 86.5063L543.464 85.1335L539.86 83.3317L536.685 81.9589L534.197 81.0151L532.224 80.3286L530.079 79.6422L526.733 78.6984L522.786 77.8404L519.268 77.2398L516.522 76.8966L513.434 76.6392L511.889 76.5534L508.371 76.4676Z" fill="white"/>
<path d="M463.155 108.899H463.669L464.184 109.243L464.442 109.757L464.356 110.272L463.669 111.216L462.554 112.589L461.696 113.704L459.808 116.107L459.294 116.793L460.409 117.737L461.524 118.595L462.726 119.539L464.013 120.568L464.27 120.654L465.042 119.624L466.93 117.222L468.045 115.849L468.817 114.82L469.332 114.219L469.675 114.047H470.19L470.705 114.391L470.962 114.991L470.791 115.592L467.959 119.195L466.93 120.482L466.072 121.598L465.814 121.941L466.587 122.627L467.187 123.056L467.101 123.4L465.214 125.802L463.498 127.947L462.382 128.805L461.01 129.491L460.237 129.749L459.294 129.92H457.577L456.119 129.577L455.347 129.32L455.175 129.835L454.66 131.122L454.145 132.838L453.545 135.755L453.202 138.072L452.944 140.731L452.858 142.018V146.909L453.116 149.912L453.459 152.143L453.888 154.116L454.574 156.347L455.175 157.891L456.119 159.865L456.977 161.238L457.835 162.353L458.865 163.468L459.808 164.326L461.01 165.184L462.554 166.042L463.841 166.471H465.128L466.243 166.128L467.359 165.442L467.445 165.356L467.53 161.323L468.732 159.779L469.246 159.007V155.918L468.217 155.146L468.131 154.717V150.341L468.217 149.569L469.161 148.882L469.246 148.711V146.823L468.817 146.394L467.445 145.279L466.415 144.507L466.587 144.163L467.616 143.563L471.391 141.16L473.365 140.045L474.652 139.359L477.483 138.072L480.572 136.87L483.661 135.841L487.35 134.811L489.838 134.211L493.185 133.524L496.617 132.923L501.078 132.323L505.282 131.894L509.058 131.636L513.176 131.465L516.866 131.379H518.324L523.815 131.551L525.617 131.722L527.076 132.151L528.62 132.838L530.079 133.61L532.395 135.154L533.768 136.184L534.969 137.128L536.256 138.243L537.2 139.015L537.801 139.616L538.487 140.217L539.86 141.504L543.635 145.279L544.236 145.965L545.609 147.424L546.381 148.282L546.981 148.968L548.011 150.169L548.44 150.684L549.47 150.942L552.902 151.714L555.905 152.572L558.65 153.516L560.709 154.374L562.511 155.232L563.798 156.004L564.742 156.776L565.514 157.72L566.115 158.749L566.801 160.551L567.23 162.439L567.573 165.099V170.075L567.316 172.735L567.144 173.764H557.878L557.535 171.276L557.02 169.732L556.334 168.359L555.647 167.329L554.703 166.214L553.845 165.442L552.558 164.584L550.928 163.812L549.47 163.383L548.526 163.211L546.896 163.125L545.265 163.297L543.893 163.64L542.777 164.069L541.49 164.755L540.546 165.442L539.688 166.214L539.002 166.9L538.144 168.102L537.286 169.732L536.771 171.448L536.6 172.392L536.514 173.593L536.428 173.764L529.049 173.85H501.421L492.241 173.764L492.155 173.593L491.898 171.534L491.469 170.075L490.611 168.273L489.838 167.158L488.809 166.042L488.037 165.356L486.75 164.498L485.463 163.897L484.176 163.468L482.889 163.211L481.173 163.125L479.542 163.297L477.912 163.726L476.539 164.326L475.167 165.184L474.051 166.128L473.451 166.729L472.507 168.016L471.906 169.045L471.22 170.847L470.877 172.563L470.791 173.764H469.332L469.246 170.59L468.474 169.646L467.874 169.045L467.788 168.874L467.273 168.96L465.9 169.389L465.042 169.56H463.24L461.782 169.217L460.066 168.531L458.779 167.844L457.577 166.986L456.376 165.957L455.776 165.356L455.003 164.412L454.06 163.125L453.287 161.752L452.601 160.38L451.915 158.664L451.228 156.519L450.628 153.945L450.199 151.113L449.941 148.453L449.855 146.566V142.962L450.027 139.702L450.37 136.527L450.885 133.438L451.486 130.864L452.086 128.891L452.773 127.432V127.089L452.172 126.145L451.743 125.116L451.486 124.172L451.4 123.571V122.113L451.657 120.826L452.172 119.539L453.03 118.252L454.231 116.793L455.089 115.678L456.033 114.476H456.29L457.406 115.334L457.749 115.506L458.435 114.562L459.208 113.618L462.039 110.015L462.726 109.157L463.155 108.899ZM506.741 135.755L503.566 136.098L500.392 136.613L497.732 137.214L494.729 138.072L492.155 139.015L490.182 139.873L488.723 140.56L486.664 141.761L485.119 142.791L483.918 143.734L482.631 144.85L481.173 146.308L480.4 147.252L479.285 148.797L478.856 149.483V149.655H506.998V135.755H506.741ZM511.117 136.098L511.031 136.184V149.655H538.23L540.718 149.569L540.546 149.226L539.86 148.368L538.83 147.166L538.058 146.223L537.458 145.622L536.685 144.678L535.57 143.563L534.969 142.876L533.253 141.16L532.567 140.56L531.452 139.53L530.25 138.586L529.221 137.814L527.848 136.956L526.561 136.356L525.96 136.184L525.274 136.098H511.117ZM558.822 157.891V161.066H563.627L563.712 160.98V157.891H558.822Z" fill="white"/>
<path d="M480.829 163.728H482.545L484.175 163.985L485.462 164.414L486.835 165.1L487.95 165.873L489.066 166.902L489.924 167.932L490.61 169.047L491.211 170.42L491.64 172.136L491.726 172.822V174.367L491.64 174.71L492.155 174.624H535.655L535.827 174.71V177.713L535.741 177.799H491.64L491.554 175.74L491.039 177.456L490.353 178.914L489.495 180.115L488.723 180.973L488.122 181.574L487.007 182.346L485.548 183.118L484.261 183.547L482.974 183.805L482.288 183.891H481.001L479.285 183.633L477.569 183.033L476.11 182.26L474.737 181.145L474.137 180.544L473.279 179.429L472.421 177.885L471.82 176.083L471.648 175.139V172.479L471.906 171.192L472.335 169.905L473.193 168.275L474.051 167.16L475.338 165.873L476.625 165.015L478.083 164.328L479.542 163.899L480.829 163.728ZM481.687 165.958L479.971 166.13L478.427 166.645L477.397 167.245L476.282 168.103L475.424 169.047L474.651 170.334L474.137 171.707L473.879 172.908V174.71L474.222 176.169L474.651 177.284L475.338 178.399L476.282 179.429L477.054 180.115L478.341 180.888L479.456 181.317L480.743 181.574H482.631L484.089 181.231L485.119 180.802L486.149 180.201L487.092 179.429L487.95 178.485L488.637 177.37L489.152 176.083L489.409 175.053L489.495 174.367V173.337L489.237 171.707L488.808 170.592L488.122 169.305L487.092 168.103L485.977 167.245L484.69 166.559L483.317 166.13L481.773 165.958H481.687Z" fill="white"/>
<path d="M546.467 163.728H548.183L549.813 163.985L551.1 164.414L552.473 165.1L553.589 165.873L554.447 166.645L555.047 167.245L555.905 168.447L556.592 169.734L557.106 171.278L557.364 172.651V174.882L557.021 176.598L556.506 177.97L555.819 179.257L555.047 180.287L554.189 181.231L552.731 182.346L551.358 183.033L550.242 183.462L549.127 183.719L547.926 183.891H546.639L545.009 183.633L543.807 183.29L542.177 182.518L540.976 181.66L539.86 180.63L538.745 179.172L538.059 177.885L537.544 176.426L537.286 175.053L537.201 174.195V173.251L537.458 171.535L537.887 170.163L538.573 168.704L539.431 167.503L540.204 166.645L540.804 166.044L541.834 165.272L543.121 164.586L544.494 164.071L545.695 163.813L546.467 163.728ZM547.411 165.958L545.609 166.13L544.065 166.645L542.864 167.331L541.576 168.447L540.89 169.305L540.118 170.677L539.689 171.964L539.517 172.822V174.71L539.86 176.254L540.375 177.456L541.062 178.485L541.834 179.343L542.692 180.115L543.979 180.888L545.094 181.317L546.381 181.574H548.269L549.728 181.231L550.757 180.802L551.787 180.201L552.645 179.515L553.245 178.914L553.932 177.97L554.618 176.598L554.961 175.482L555.133 174.281V173.337L554.961 172.136L554.532 170.763L554.018 169.734L553.331 168.79L552.731 168.103L551.615 167.245L550.328 166.559L548.955 166.13L548.612 166.044L547.411 165.958Z" fill="white"/>
</svg>
